<svg id="visual" viewBox="0 0 900 600" width="900" height="600" xmlns="http://www.w3.org/2000/svg" xmlns:xlink="http://www.w3.org/1999/xlink" version="1.1"><rect x="0" y="0" width="900" height="600" fill="#000000"></rect><defs><linearGradient id="grad1_0" x1="33.3%" y1="100%" x2="100%" y2="0%"><stop offset="20%" stop-color="#000000" stop-opacity="1"></stop><stop offset="80%" stop-color="#000000" stop-opacity="1"></stop></linearGradient></defs><defs><linearGradient id="grad2_0" x1="0%" y1="100%" x2="66.7%" y2="0%"><stop offset="20%" stop-color="#000000" stop-opacity="1"></stop><stop offset="80%" stop-color="#000000" stop-opacity="1"></stop></linearGradient></defs><g transform="translate(900, 600)"><path d="M-351.5 0C-328.3 -32.2 -305 -64.4 -287.2 -93.3C-269.5 -122.2 -257.2 -147.9 -244.3 -177.5C-231.4 -207.2 -217.9 -240.8 -195.7 -269.4C-173.5 -298 -142.7 -321.5 -108.6 -334.3C-74.6 -347.2 -37.3 -349.4 0 -351.5L0 0Z" fill="#ff5100"></path></g><g transform="translate(0, 0)"><path d="M351.5 0C347.6 37.9 343.7 75.8 328.1 106.6C312.5 137.4 285.1 161.1 265.4 192.8C245.6 224.5 233.4 264.3 206.6 284.4C179.9 304.5 138.5 305 101.7 312.9C64.8 320.8 32.4 336.2 0 351.5L0 0Z" fill="#ff5100"></path></g></svg>