<svg id="visual" viewBox="0 0 900 600" width="900" height="600" xmlns="http://www.w3.org/2000/svg" xmlns:xlink="http://www.w3.org/1999/xlink" version="1.1"><rect x="0" y="0" width="900" height="600" fill="#000000"></rect><g fill="#ffff00"><circle r="69" cx="141" cy="253"></circle><circle r="35" cx="165" cy="498"></circle><circle r="56" cx="659" cy="251"></circle><circle r="58" cx="429" cy="585"></circle><circle r="63" cx="460" cy="79"></circle><circle r="44" cx="449" cy="342"></circle><circle r="45" cx="399" cy="204"></circle><circle r="35" cx="146" cy="103"></circle><circle r="66" cx="792" cy="96"></circle><circle r="42" cx="599" cy="54"></circle><circle r="56" cx="12" cy="163"></circle><circle r="67" cx="666" cy="481"></circle><circle r="63" cx="813" cy="422"></circle><circle r="35" cx="332" cy="433"></circle><circle r="64" cx="890" cy="563"></circle><circle r="55" cx="65" cy="380"></circle><circle r="37" cx="298" cy="79"></circle><circle r="63" cx="516" cy="466"></circle><circle r="63" cx="891" cy="258"></circle><circle r="44" cx="22" cy="588"></circle><circle r="63" cx="575" cy="597"></circle><circle r="66" cx="25" cy="8"></circle><circle r="52" cx="289" cy="290"></circle><circle r="54" cx="288" cy="564"></circle></g></svg>